<svg width="72" height="90" viewBox="0 0 72 90" fill="none" xmlns="http://www.w3.org/2000/svg">
<g clip-path="url(#clip0_49_542)">
<path d="M7.54156 37.5816C1.67493 36.7016 -0.651191 33.1817 0.155471 26.3558H71.3588C71.2238 28.2948 71.3588 30.2747 70.8924 32.1051C70.1767 34.9475 68.1409 36.684 65.2516 37.3352C64.7911 37.4379 64.3218 37.4936 63.7615 37.5875V38.887C63.7615 53.8175 63.7615 68.7501 63.7615 83.6846C63.7615 87.7267 61.4882 89.9971 57.4343 89.9971H13.8482C9.81195 89.9971 7.54449 87.712 7.54449 83.6582C7.54449 68.7608 7.54449 53.8645 7.54449 38.9691L7.54156 37.5816ZM24.3788 35.0531C20.982 38.3091 16.5996 38.3619 13.2322 35.1177C11.3226 35.7864 11.2434 37.2531 11.2522 38.9779C11.3138 50.5029 11.2845 62.0279 11.2845 73.5558V74.9227H60.0186V71.5729C60.0186 60.1936 60.0186 48.8143 60.0186 37.435C60.0186 36.7456 59.8895 36.2616 59.2471 35.9126C58.8546 35.6481 58.4891 35.3454 58.1559 35.0091C54.6829 38.359 50.3005 38.3003 46.9067 35.0473C43.4131 38.2974 39.2184 38.3502 35.6369 35.0766C32.0787 38.3472 27.8841 38.312 24.3788 35.0531ZM35.6545 84.3328C36.863 84.3328 38.0686 84.3534 39.2771 84.3328C40.4328 84.3094 41.2131 83.5878 41.2571 82.5728C41.3011 81.5579 40.512 80.6456 39.324 80.6251C36.8737 80.588 34.4225 80.588 31.9702 80.6251C31.7214 80.6153 31.4731 80.6555 31.2401 80.7435C31.0071 80.8314 30.7941 80.9653 30.6138 81.1371C30.4335 81.3089 30.2896 81.5152 30.1905 81.7436C30.0915 81.9721 30.0393 82.2182 30.0372 82.4672C30.0225 83.532 30.8321 84.3182 32.0318 84.3446C33.2315 84.371 34.4459 84.3387 35.6545 84.3387V84.3328Z" fill="#396C03"/>
<path d="M63.7615 11.1935H7.60022C7.60022 9.02288 7.42422 6.89036 7.64422 4.80184C7.94635 1.93892 10.3839 0.0234665 13.4111 0C18.4242 0 23.4372 0 28.4532 0H57.4285C61.4999 0 63.7586 2.24985 63.7644 6.29783L63.7615 11.1935ZM35.543 7.49462C36.7867 7.49462 38.0304 7.51809 39.2742 7.49462C40.4475 7.46822 41.2102 6.75249 41.2571 5.73463C41.304 4.71677 40.5238 3.80744 39.327 3.78398C36.8747 3.74096 34.4234 3.74096 31.9731 3.78398C31.715 3.77386 31.4575 3.81765 31.2172 3.91256C30.9769 4.00747 30.759 4.15141 30.5774 4.33522C30.3958 4.51902 30.2545 4.73865 30.1625 4.9801C30.0705 5.22155 30.0298 5.47952 30.043 5.73757C30.0929 6.76423 30.8614 7.47409 32.0289 7.49755C33.1963 7.52102 34.3726 7.49462 35.543 7.49462Z" fill="#396C03"/>
<path d="M0.973862 22.434C2.36132 20.3455 3.72825 18.4154 4.95144 16.3943C5.59383 15.3325 6.33596 14.9746 7.59142 14.9776C26.435 15.0206 45.2796 15.0206 64.1252 14.9776C65.0932 14.9776 65.6417 15.2709 66.1463 16.0805C67.4663 18.1866 68.8684 20.2399 70.3351 22.434H0.973862Z" fill="#396C03"/>
<path d="M49.3648 58.0797H21.8532C21.9647 57.625 22.0351 57.1997 22.1671 56.8154C23.9271 51.6616 27.447 48.432 32.7505 47.2059C33.563 47.0181 33.8622 46.7277 33.7859 45.9152C33.733 45.369 33.7567 44.8181 33.8563 44.2784C33.9098 43.8567 34.1212 43.4709 34.4477 43.1988C34.7743 42.9266 35.1919 42.7883 35.6163 42.8118C36.5696 42.8118 37.1915 43.3016 37.435 44.2373C37.4715 44.3786 37.4951 44.523 37.5054 44.6685C37.5611 45.4253 37.3528 46.3757 37.7371 46.8832C38.0803 47.3379 39.0835 47.2645 39.7728 47.4963C44.7008 49.1624 47.9186 52.4829 49.3208 57.5077C49.3542 57.6477 49.3787 57.7898 49.3941 57.933C49.3903 57.9829 49.3804 58.0321 49.3648 58.0797Z" fill="#396C03"/>
<path d="M35.5401 65.63C30.8194 65.63 26.1006 65.63 21.3839 65.63C20.9474 65.6507 20.5103 65.6052 20.0874 65.4951C19.6713 65.3904 19.3096 65.1335 19.0739 64.775C18.8381 64.4165 18.7455 63.9826 18.8143 63.5591C18.8411 63.1325 19.0223 62.7302 19.3241 62.4274C19.6258 62.1245 20.0275 61.9419 20.454 61.9135C20.7467 61.8889 21.0405 61.882 21.334 61.893H49.9778C50.1949 61.893 50.4149 61.893 50.6349 61.893C51.6997 61.9604 52.4712 62.685 52.5181 63.653C52.565 64.621 51.7848 65.4951 50.6877 65.6036C50.3948 65.6232 50.1011 65.6281 49.8077 65.6183L35.5401 65.63Z" fill="#396C03"/>
</g>
<defs>
<clipPath id="clip0_49_542">
<rect width="71.3588" height="90" fill="white"/>
</clipPath>
</defs>
</svg>
