<svg width="90" height="90" viewBox="0 0 90 90" fill="none" xmlns="http://www.w3.org/2000/svg">
<g clip-path="url(#clip0_49_531)">
<path d="M89.9624 36.271C89.6707 38.0304 89.4613 39.7993 89.0756 41.5446C85.9918 55.3897 74.0944 66.0263 59.9459 67.6329C42.9395 69.5664 27.3914 58.9838 22.9693 42.4643C18.8176 26.928 26.681 10.1145 41.2953 3.30485C44.9821 1.55409 48.9541 0.481623 53.021 0.13878C53.1908 0.109608 53.3571 0.0631047 53.5173 0L58.2711 0C59.4237 0.171711 60.5786 0.322252 61.7289 0.515133C75.1105 2.74737 86.14 13.1488 89.0756 26.3447C89.4684 28.1065 89.673 29.9083 89.9624 31.6912V36.271ZM53.348 16.91V36.5509H73.0053V31.2843H58.5699V16.91H53.348Z" fill="#396C03"/>
<path d="M26.1424 67.4636L10.0392 83.6796L6.40033 80.029L22.4635 63.7988L26.1424 67.4636Z" fill="#396C03"/>
<path d="M36.5062 69.8793L40.0792 73.3888L26.1753 87.422L22.5953 83.8631L36.5062 69.8793Z" fill="#396C03"/>
<path d="M6.07808 67.4118L2.54977 63.9282C7.18205 59.2583 11.8253 54.5814 16.4795 49.8973L20.0078 53.3998L6.07808 67.4118Z" fill="#396C03"/>
<path d="M3.64121 50.0031L0 46.3831L12.6713 33.6365C13.8968 34.8549 15.1317 36.0781 16.289 37.2259L3.64121 50.0031Z" fill="#396C03"/>
<path d="M43.711 90.0001L40.0674 86.4106L52.7952 73.624L56.3847 77.2017L43.711 90.0001Z" fill="#396C03"/>
</g>
<defs>
<clipPath id="clip0_49_531">
<rect width="89.9624" height="90" fill="white"/>
</clipPath>
</defs>
</svg>
