<svg width="72" height="90" viewBox="0 0 72 90" fill="none" xmlns="http://www.w3.org/2000/svg">
<g clip-path="url(#clip0_49_538)">
<path d="M71.9739 35.724C71.8888 43.2574 69.7457 49.917 66.4259 56.2412C61.4938 65.6423 54.7441 73.6413 47.068 80.8768C43.9159 83.8511 40.526 86.5775 37.2187 89.3891C36.2548 90.2052 35.7441 90.1952 34.7977 89.4516C24.3276 81.2373 15.0542 71.9038 7.96899 60.5574C4.33874 54.744 1.5372 48.5701 0.480671 41.7252C-1.19425 30.8595 1.50215 21.143 8.54983 12.7283C14.2706 5.90347 21.6212 1.7024 30.4214 0.438072C43.1698 -1.39207 54.0606 2.50356 62.7656 12.0173C68.9446 18.7771 71.8538 26.9013 71.9739 35.724ZM8.97794 35.8843C8.95541 50.7658 20.9953 62.9233 35.7892 62.9659C39.349 62.9834 42.8773 62.2977 46.1715 60.9482C49.4658 59.5988 52.4611 57.6121 54.9856 55.1022C57.5102 52.5923 59.5143 49.6086 60.8829 46.3223C62.2515 43.036 62.9577 39.5118 62.9609 35.9519C62.986 21.1805 50.8985 9.01045 36.1447 8.9704C21.1555 8.93034 9.01299 20.9702 8.97794 35.8843Z" fill="#396C03"/>
<path d="M41.9682 43.4653C41.9682 41.4975 41.9456 39.5271 41.9832 37.5593C42.0054 37.3029 41.9553 37.0454 41.8385 36.8162C41.7216 36.5869 41.5427 36.395 41.3222 36.2624C36.688 32.9226 36.1047 25.7097 40.108 21.6263C42.8745 18.8022 46.9428 18.7571 49.7219 21.5211C53.8378 25.607 53.2845 32.9251 48.5827 36.2924C48.3751 36.4173 48.2063 36.5975 48.0953 36.8128C47.9843 37.0282 47.9355 37.2702 47.9543 37.5117C47.9777 41.4791 47.9777 45.4473 47.9543 49.4164C47.9736 50.0632 47.7797 50.6985 47.4024 51.2242C47.025 51.7499 46.4853 52.1369 45.8663 52.3256C45.2689 52.5355 44.6183 52.5385 44.0189 52.3342C43.4196 52.1299 42.9063 51.7301 42.5615 51.199C42.2134 50.6158 42.0163 49.9549 41.9882 49.2762C41.9206 47.3409 41.9682 45.4031 41.9682 43.4653Z" fill="#396C03"/>
<path d="M23.9746 37.5267C21.6913 37.2513 20.1466 36.1522 19.5858 33.899C19.5179 33.6263 19.4834 33.3463 19.4831 33.0653C19.4831 29.0996 19.4456 25.1338 19.5132 21.1681C19.5422 20.8727 19.6325 20.5866 19.7781 20.3279C19.9238 20.0693 20.1218 19.8439 20.3594 19.6659C21.3283 19.0325 22.4524 19.8537 22.4674 21.1406C22.49 23.2661 22.4674 25.3967 22.4674 27.5123V28.4035H25.4718V22.0469C25.4718 21.7039 25.4567 21.3584 25.4718 21.0154C25.5243 20.1141 26.1052 19.5132 26.9189 19.4782C27.1249 19.468 27.3308 19.5013 27.5232 19.5758C27.7156 19.6504 27.8901 19.7646 28.0356 19.9109C28.181 20.0573 28.294 20.2326 28.3673 20.4254C28.4406 20.6183 28.4726 20.8244 28.4611 21.0304C28.4886 23.2461 28.4611 25.4643 28.4611 27.6825V28.4086H31.4654V26.9665C31.4654 25.0312 31.4654 23.0934 31.4654 21.1581C31.4654 20.1316 32.0863 19.4832 32.9676 19.4907C33.8489 19.4982 34.4422 20.1266 34.4472 21.088C34.4623 25.1163 34.4823 29.1446 34.4472 33.1729C34.4193 34.1313 34.078 35.0542 33.4758 35.8002C32.8735 36.5463 32.0434 37.0745 31.1124 37.3039C30.7569 37.3965 30.3939 37.4566 29.9733 37.5543V43.9134C29.9733 45.7561 29.9933 47.6013 29.9733 49.4414C29.9848 49.8414 29.9161 50.2397 29.771 50.6127C29.6259 50.9856 29.4075 51.3257 29.1286 51.6127C28.8498 51.8997 28.5162 52.1279 28.1476 52.2837C27.779 52.4395 27.3829 52.5198 26.9827 52.5198C26.5825 52.5198 26.1864 52.4395 25.8178 52.2837C25.4492 52.1279 25.1156 51.8997 24.8368 51.6127C24.5579 51.3257 24.3395 50.9856 24.1944 50.6127C24.0493 50.2397 23.9806 49.8414 23.9921 49.4414C23.9696 45.8187 23.9921 42.1935 23.9921 38.5707L23.9746 37.5267Z" fill="#396C03"/>
</g>
<defs>
<clipPath id="clip0_49_538">
<rect width="71.974" height="90" fill="white"/>
</clipPath>
</defs>
</svg>
