<svg width="30" height="30" viewBox="0 0 30 30" fill="none" xmlns="http://www.w3.org/2000/svg">
<path d="M15 9.54545C11.9864 9.54545 9.54545 11.9864 9.54545 15C9.54545 18.0136 11.9864 20.4545 15 20.4545C18.0136 20.4545 20.4545 18.0136 20.4545 15C20.4545 11.9864 18.0136 9.54545 15 9.54545ZM27.1909 13.6364C26.5636 7.95 22.05 3.43636 16.3636 2.80909V1.36364C16.3636 0.613636 15.75 0 15 0C14.25 0 13.6364 0.613636 13.6364 1.36364V2.80909C7.94999 3.43636 3.43636 7.95 2.80909 13.6364H1.36364C0.613636 13.6364 0 14.25 0 15C0 15.75 0.613636 16.3636 1.36364 16.3636H2.80909C3.43636 22.05 7.94999 26.5636 13.6364 27.1909V28.6364C13.6364 29.3864 14.25 30 15 30C15.75 30 16.3636 29.3864 16.3636 28.6364V27.1909C22.05 26.5636 26.5636 22.05 27.1909 16.3636H28.6363C29.3863 16.3636 30 15.75 30 15C30 14.25 29.3863 13.6364 28.6363 13.6364H27.1909ZM15 24.5455C9.72272 24.5455 5.45454 20.2773 5.45454 15C5.45454 9.72273 9.72272 5.45455 15 5.45455C20.2773 5.45455 24.5454 9.72273 24.5454 15C24.5454 20.2773 20.2773 24.5455 15 24.5455Z" fill="white"/>
</svg>
